<?xml version="1.0" encoding="UTF-8"?>
<svg xmlns="http://www.w3.org/2000/svg" viewBox="0 0 388.23 79.28">
  <path d="M116.9,37.34c15.89,9.08,18.41,24.71,6.16,35.99-4.01,3.69-8.89,5.22-14.11,5.31-13.1.23-26.21.1-39.31.27-2.81.04-3.7-.87-3.69-3.68.09-23.55.08-47.11.01-70.66,0-2.53.72-3.51,3.38-3.48,12.44.15,24.9-.3,37.31.29,16.42.78,25.3,16.51,17.15,29.5-1.7,2.71-4.18,4.62-6.9,6.46ZM94.66,65.91c3.78-.33,8.29.55,12.68-.85,4.99-1.58,6.98-4.52,6.75-10.14-.2-5.01-2.67-7.88-7.58-9.03-5.24-1.22-10.55-.86-15.84-.88-8.89-.04-8.89,0-8.89,8.88,0,8.03,4.29,12.03,12.87,12.02h.01ZM93.68,14.21c-7.95-.07-11.91,3.85-11.9,11.77,0,1.16.03,2.32.01,3.49-.02,1.55.53,2.57,2.27,2.53,6.62-.16,13.3.69,19.86-.53,5.22-.97,7.83-4.39,7.57-8.95-.28-4.92-3.28-7.84-8.85-8.26-2.97-.22-5.97-.04-8.96-.04h0Z" style="fill: #e06d75; stroke-width: 0px;"/>
  <path d="M222.57,76.25c-13.27-8.47-25.64-16.2-37.79-24.25-3.03-2.01-5.05-1.7-7.86.22-13,8.86-26.14,17.5-40.1,26.8,0-7.06.03-13.25-.02-19.45-.02-2.13,1.69-2.68,3.03-3.55,7.66-4.96,15.28-9.99,23.05-14.77,2.83-1.74,3.23-2.59.09-4.5-7.65-4.66-15.04-9.75-22.67-14.44-2.55-1.57-3.71-3.28-3.57-6.35.25-5.29.07-10.6.07-15.91,2.15-.35,3.24,1.16,4.55,2.01,11.83,7.68,23.72,15.28,35.37,23.22,3.48,2.37,5.87,2.65,9.55.13,11.6-7.95,23.56-15.39,36.28-23.61v18.85c0,2.33-2.07,2.83-3.53,3.76-7.68,4.87-15.42,9.67-23.75,14.88,8.24,5.05,15.85,9.9,23.67,14.41,2.84,1.64,3.88,3.54,3.7,6.76-.27,4.93-.07,9.88-.07,15.79h0Z" style="fill: #e16d76; stroke-width: 0px;"/>
  <path d="M232.38,39.81c0-11.29.12-22.59-.07-33.87-.06-3.5.57-5.02,4.56-4.9,10.29.32,20.59.02,30.88.22,14.63.28,23.34,8.77,23.53,22.63.22,15.66-8.2,25.15-23.17,25.91-4.97.25-9.97.38-14.94.12-3.81-.2-5.32.82-5.11,4.91.34,6.62-.06,13.28.15,19.92.11,3.3-1.02,4.19-4.27,4.2-11.57.05-11.57.18-11.57-11.24v-27.9h.01ZM248.16,25.56c0,2.64.1,5.29-.03,7.93-.12,2.44.62,3.67,3.32,3.55,5.1-.23,10.22.28,15.28-.91,5.23-1.23,8.42-5.1,8.52-10.65.09-5.16-2.95-9.12-8.02-10.51-2.41-.66-4.86-.83-7.35-.85-7.82-.07-11.73,3.75-11.73,11.44h0Z" style="fill: #e06d75; stroke-width: 0px;"/>
  <path d="M17.51,41.63c10.17,4.65,20.26,9.56,30.61,13.84,4.1,1.69,5.67,3.85,5.07,8.11-.31,2.22-.06,4.51-.06,7.4-17.31-7.55-33.99-14.84-50.68-22.09-1.56-.68-2.4-1.61-2.2-3.38.11-.98.17-2.02,0-2.98-1.12-5.89,1.57-8.59,7.02-10.77,15.2-6.08,30.11-12.9,45.87-19.75,0,3.48-.22,6.4.06,9.27.3,3.01-.96,4.4-3.63,5.52-9.93,4.18-19.76,8.59-29.62,12.92-.89.39-1.97.51-2.44,1.92h0Z" style="fill: #4f9a7a; stroke-width: 0px;"/>
  <path d="M335.52,69.57c-.18-.54-.35-.83-.36-1.14-.42-7.52,2.78-12.82,9.61-15.91,8.72-3.93,17.46-7.84,26.97-12.11-10.7-4.75-20.55-9.45-30.67-13.45-4.77-1.88-6.88-4.39-6.02-9.47.32-1.89.05-3.89.05-6.44,13.72,5.94,26.9,11.64,40.08,17.35,1.82.79,3.56,1.93,5.46,2.35,6.36,1.41,8.03,5.32,7.5,11.47-.3,3.42-1.12,5.21-4.35,6.58-14.63,6.19-29.14,12.66-43.69,19.01-1.49.65-3.03,1.17-4.56,1.76h-.02Z" style="fill: #4f9a7a; stroke-width: 0px;"/>
  <path d="M302.5,78.97c-4.53,1.24-4.36-1.38-3.27-5.69,5.77-22.81,11.28-45.69,16.89-68.54.72-2.92,9.34-5.38,11.47-3.27.86.85.17,1.83-.05,2.74-5.86,23.81-11.81,47.61-17.5,71.46-1.03,4.31-3.92,2.97-7.55,3.3h0Z" style="fill: #4f9a7a; stroke-width: 0px;"/>
</svg>
