<?xml version="1.0" encoding="UTF-8"?>
<svg id="Layer_1" data-name="Layer 1" xmlns="http://www.w3.org/2000/svg" version="1.1" viewBox="0 0 388.2 79.3">
  <defs>
    <style>
      .cls-1 {
        fill: #e06d75;
      }

      .cls-1, .cls-2, .cls-3 {
        stroke-width: 0px;
      }

      .cls-2 {
        fill: #e16d76;
      }

      .cls-3 {
        fill: #4f9a7a;
      }
    </style>
  </defs>
  <path class="cls-1" d="M116.9,37.3c15.9,9.1,18.4,24.7,6.2,36-4,3.7-8.9,5.2-14.1,5.3-13.1.2-26.2,0-39.3.3-2.8,0-3.7-.9-3.7-3.7,0-23.5,0-47.1,0-70.7,0-2.5.7-3.5,3.4-3.5,12.4.1,24.9-.3,37.3.3,16.4.8,25.3,16.5,17.2,29.5-1.7,2.7-4.2,4.6-6.9,6.5ZM94.7,65.9c3.8-.3,8.3.6,12.7-.8,5-1.6,7-4.5,6.8-10.1-.2-5-2.7-7.9-7.6-9-5.2-1.2-10.6-.9-15.8-.9-8.9,0-8.9,0-8.9,8.9s4.3,12,12.9,12h0ZM93.7,14.2c-7.9,0-11.9,3.8-11.9,11.8,0,1.2,0,2.3,0,3.5,0,1.5.5,2.6,2.3,2.5,6.6-.2,13.3.7,19.9-.5,5.2-1,7.8-4.4,7.6-8.9-.3-4.9-3.3-7.8-8.8-8.3-3-.2-6,0-9,0h0Z"/>
  <path class="cls-2" d="M222.6,76.2c-13.3-8.5-25.6-16.2-37.8-24.2-3-2-5.1-1.7-7.9.2-13,8.9-26.1,17.5-40.1,26.8,0-7.1,0-13.2,0-19.5,0-2.1,1.7-2.7,3-3.5,7.7-5,15.3-10,23.1-14.8,2.8-1.7,3.2-2.6,0-4.5-7.6-4.7-15-9.8-22.7-14.4-2.6-1.6-3.7-3.3-3.6-6.4.2-5.3,0-10.6,0-15.9,2.1-.3,3.2,1.2,4.6,2,11.8,7.7,23.7,15.3,35.4,23.2,3.5,2.4,5.9,2.6,9.6.1,11.6-8,23.6-15.4,36.3-23.6v18.9c0,2.3-2.1,2.8-3.5,3.8-7.7,4.9-15.4,9.7-23.8,14.9,8.2,5,15.9,9.9,23.7,14.4,2.8,1.6,3.9,3.5,3.7,6.8-.3,4.9,0,9.9,0,15.8h0Z"/>
  <path class="cls-1" d="M232.4,39.8c0-11.3.1-22.6,0-33.9,0-3.5.6-5,4.6-4.9,10.3.3,20.6,0,30.9.2,14.6.3,23.3,8.8,23.5,22.6.2,15.7-8.2,25.1-23.2,25.9-5,.2-10,.4-14.9.1-3.8-.2-5.3.8-5.1,4.9.3,6.6,0,13.3.1,19.9.1,3.3-1,4.2-4.3,4.2-11.6,0-11.6.2-11.6-11.2v-27.9h0ZM248.2,25.6c0,2.6.1,5.3,0,7.9-.1,2.4.6,3.7,3.3,3.5,5.1-.2,10.2.3,15.3-.9,5.2-1.2,8.4-5.1,8.5-10.6,0-5.2-3-9.1-8-10.5-2.4-.7-4.9-.8-7.4-.9-7.8,0-11.7,3.7-11.7,11.4h0Z"/>
  <path class="cls-3" d="M17.5,41.6c10.2,4.7,20.3,9.6,30.6,13.8,4.1,1.7,5.7,3.8,5.1,8.1-.3,2.2,0,4.5,0,7.4-17.3-7.5-34-14.8-50.7-22.1-1.6-.7-2.4-1.6-2.2-3.4.1-1,.2-2,0-3-1.1-5.9,1.6-8.6,7-10.8,15.2-6.1,30.1-12.9,45.9-19.8,0,3.5-.2,6.4,0,9.3.3,3-1,4.4-3.6,5.5-9.9,4.2-19.8,8.6-29.6,12.9-.9.4-2,.5-2.4,1.9h0Z"/>
  <path class="cls-3" d="M335.5,69.6c-.2-.5-.4-.8-.4-1.1-.4-7.5,2.8-12.8,9.6-15.9,8.7-3.9,17.5-7.8,27-12.1-10.7-4.8-20.5-9.5-30.7-13.5-4.8-1.9-6.9-4.4-6-9.5.3-1.9,0-3.9,0-6.4,13.7,5.9,26.9,11.6,40.1,17.4,1.8.8,3.6,1.9,5.5,2.4,6.4,1.4,8,5.3,7.5,11.5-.3,3.4-1.1,5.2-4.4,6.6-14.6,6.2-29.1,12.7-43.7,19-1.5.7-3,1.2-4.6,1.8h0Z"/>
  <path class="cls-3" d="M302.5,79c-4.5,1.2-4.4-1.4-3.3-5.7,5.8-22.8,11.3-45.7,16.9-68.5.7-2.9,9.3-5.4,11.5-3.3.9.8.2,1.8,0,2.7-5.9,23.8-11.8,47.6-17.5,71.5-1,4.3-3.9,3-7.5,3.3h0Z"/>
</svg>